<svg width="72" height="72" viewBox="0 0 72 72" fill="none" xmlns="http://www.w3.org/2000/svg">
<path d="M36 40.29C41.1694 40.29 45.36 36.0994 45.36 30.93C45.36 25.7606 41.1694 21.57 36 21.57C30.8306 21.57 26.64 25.7606 26.64 30.93C26.64 36.0994 30.8306 40.29 36 40.29Z" fill="#3B4483"/>
<path d="M10.86 25.47C16.77 -0.509993 55.26 -0.479992 61.14 25.5C64.59 40.74 55.11 53.64 46.8 61.62C40.77 67.44 31.23 67.44 25.17 61.62C16.89 53.64 7.41 40.71 10.86 25.47Z" fill="#3B4483"/>
<path d="M36 40.29C41.1694 40.29 45.36 36.0994 45.36 30.93C45.36 25.7606 41.1694 21.57 36 21.57C30.8306 21.57 26.64 25.7606 26.64 30.93C26.64 36.0994 30.8306 40.29 36 40.29Z" stroke="white" stroke-width="3"/>
<path d="M10.86 25.47C16.77 -0.509993 55.26 -0.479992 61.14 25.5C64.59 40.74 55.11 53.64 46.8 61.62C40.77 67.44 31.23 67.44 25.17 61.62C16.89 53.64 7.41 40.71 10.86 25.47Z" stroke="white" stroke-width="3"/>
<circle cx="36" cy="31" r="8" fill="white"/>
</svg>
